<mxfile host="app.diagrams.net" modified="2025-10-28T00:00:00.000Z" agent="Claude Code" version="24.0.0">
  <diagram name="通常時の構成" id="normal-config">
    <mxGraphModel dx="1422" dy="794" grid="1" gridSize="10" guides="1" tooltips="1" connect="1" arrows="1" fold="1" page="1" pageScale="1" pageWidth="1169" pageHeight="827" math="0" shadow="0">
      <root>
        <mxCell id="0" />
        <mxCell id="1" parent="0" />

        <!-- Title -->
        <mxCell id="title" value="通常時の構成 - 東京リージョン + 大阪リージョンバックアップ" style="text;html=1;strokeColor=none;fillColor=none;align=center;verticalAlign=middle;whiteSpace=wrap;rounded=0;fontSize=20;fontStyle=1" vertex="1" parent="1">
          <mxGeometry x="200" y="20" width="800" height="40" as="geometry" />
        </mxCell>

        <!-- Tokyo Region -->
        <mxCell id="tokyo-container" value="東京リージョン" style="rounded=1;whiteSpace=wrap;html=1;fillColor=#e6f3ff;strokeColor=#6c8ebf;fontSize=16;fontStyle=1;align=left;verticalAlign=top;" vertex="1" parent="1">
          <mxGeometry x="200" y="160" width="300" height="240" as="geometry" />
        </mxCell>

        <mxCell id="tokyo-vpc" value="VPC" style="sketch=0;points=[[0,0,0],[0.25,0,0],[0.5,0,0],[0.75,0,0],[1,0,0],[0,1,0],[0.25,1,0],[0.5,1,0],[0.75,1,0],[1,1,0],[0,0.25,0],[0,0.5,0],[0,0.75,0],[1,0.25,0],[1,0.5,0],[1,0.75,0]];outlineConnect=0;fontColor=#232F3E;gradientColor=#8C4FFF;gradientDirection=north;fillColor=#5A30B5;strokeColor=#ffffff;dashed=0;verticalLabelPosition=bottom;verticalAlign=top;align=center;html=1;fontSize=11;fontStyle=0;aspect=fixed;shape=mxgraph.aws4.resourceIcon;resIcon=mxgraph.aws4.vpc;" vertex="1" parent="1">
          <mxGeometry x="240" y="220" width="50" height="50" as="geometry" />
        </mxCell>

        <mxCell id="tokyo-ecs" value="ECS" style="sketch=0;points=[[0,0,0],[0.25,0,0],[0.5,0,0],[0.75,0,0],[1,0,0],[0,1,0],[0.25,1,0],[0.5,1,0],[0.75,1,0],[1,1,0],[0,0.25,0],[0,0.5,0],[0,0.75,0],[1,0.25,0],[1,0.5,0],[1,0.75,0]];outlineConnect=0;fontColor=#232F3E;gradientColor=#F78E04;gradientDirection=north;fillColor=#D05C17;strokeColor=#ffffff;dashed=0;verticalLabelPosition=bottom;verticalAlign=top;align=center;html=1;fontSize=11;fontStyle=0;aspect=fixed;shape=mxgraph.aws4.resourceIcon;resIcon=mxgraph.aws4.ecs;" vertex="1" parent="1">
          <mxGeometry x="370" y="220" width="50" height="50" as="geometry" />
        </mxCell>

        <mxCell id="tokyo-rds" value="RDS (Primary)" style="sketch=0;points=[[0,0,0],[0.25,0,0],[0.5,0,0],[0.75,0,0],[1,0,0],[0,1,0],[0.25,1,0],[0.5,1,0],[0.75,1,0],[1,1,0],[0,0.25,0],[0,0.5,0],[0,0.75,0],[1,0.25,0],[1,0.5,0],[1,0.75,0]];outlineConnect=0;fontColor=#232F3E;gradientColor=#4D72F3;gradientDirection=north;fillColor=#3334B9;strokeColor=#ffffff;dashed=0;verticalLabelPosition=bottom;verticalAlign=top;align=center;html=1;fontSize=11;fontStyle=0;aspect=fixed;shape=mxgraph.aws4.resourceIcon;resIcon=mxgraph.aws4.rds;" vertex="1" parent="1">
          <mxGeometry x="300" y="320" width="50" height="50" as="geometry" />
        </mxCell>

        <!-- Osaka Region -->
        <mxCell id="osaka-container" value="大阪リージョン (DR)" style="rounded=1;whiteSpace=wrap;html=1;fillColor=#fff3e6;strokeColor=#d6b656;fontSize=16;fontStyle=1;align=left;verticalAlign=top;" vertex="1" parent="1">
          <mxGeometry x="700" y="160" width="300" height="240" as="geometry" />
        </mxCell>

        <mxCell id="osaka-snapshot" value="RDS&#xa;Snapshot" style="sketch=0;points=[[0,0,0],[0.25,0,0],[0.5,0,0],[0.75,0,0],[1,0,0],[0,1,0],[0.25,1,0],[0.5,1,0],[0.75,1,0],[1,1,0],[0,0.25,0],[0,0.5,0],[0,0.75,0],[1,0.25,0],[1,0.5,0],[1,0.75,0]];outlineConnect=0;fontColor=#232F3E;gradientColor=#4D72F3;gradientDirection=north;fillColor=#3334B9;strokeColor=#ffffff;dashed=0;verticalLabelPosition=bottom;verticalAlign=top;align=center;html=1;fontSize=11;fontStyle=0;aspect=fixed;shape=mxgraph.aws4.resourceIcon;resIcon=mxgraph.aws4.rds;" vertex="1" parent="1">
          <mxGeometry x="800" y="270" width="50" height="50" as="geometry" />
        </mxCell>

        <!-- S3 for CloudFormation -->
        <mxCell id="s3-cfn" value="S3&#xa;CFnテンプレート" style="sketch=0;points=[[0,0,0],[0.25,0,0],[0.5,0,0],[0.75,0,0],[1,0,0],[0,1,0],[0.25,1,0],[0.5,1,0],[0.75,1,0],[1,1,0],[0,0.25,0],[0,0.5,0],[0,0.75,0],[1,0.25,0],[1,0.5,0],[1,0.75,0]];outlineConnect=0;fontColor=#232F3E;gradientColor=#60A337;gradientDirection=north;fillColor=#277116;strokeColor=#ffffff;dashed=0;verticalLabelPosition=bottom;verticalAlign=top;align=center;html=1;fontSize=11;fontStyle=0;aspect=fixed;shape=mxgraph.aws4.resourceIcon;resIcon=mxgraph.aws4.s3;" vertex="1" parent="1">
          <mxGeometry x="900" y="270" width="50" height="50" as="geometry" />
        </mxCell>

        <!-- Arrows -->
        <mxCell id="arrow1" style="edgeStyle=orthogonalEdgeStyle;rounded=0;orthogonalLoop=1;jettySize=auto;html=1;strokeWidth=3;endArrow=block;endFill=1;strokeColor=#b85450;dashed=1;" edge="1" parent="1" source="tokyo-rds" target="osaka-snapshot">
          <mxGeometry relative="1" as="geometry" />
        </mxCell>

        <!-- Label -->
        <mxCell id="label1" value="毎日&#xa;スナップショット" style="text;html=1;strokeColor=none;fillColor=none;align=center;verticalAlign=middle;whiteSpace=wrap;rounded=0;fontSize=11;fontStyle=1" vertex="1" parent="1">
          <mxGeometry x="520" y="320" width="100" height="30" as="geometry" />
        </mxCell>

        <!-- Note -->
        <mxCell id="note" value="【通常時の構成】&#xa;&#xa;✅ 東京リージョン: 本番環境稼働（VPC + ECS + RDS）&#xa;✅ 大阪リージョン: DR用バックアップのみ（スナップショット + CloudFormationテンプレート）&#xa;✅ RDSスナップショット: 毎日自動コピー&#xa;✅ CloudFormationテンプレート: S3に保管（DR時に大阪リージョンで実行）" style="rounded=0;whiteSpace=wrap;html=1;fillColor=#ffffcc;strokeColor=#d6b656;align=left;verticalAlign=top;fontSize=11;" vertex="1" parent="1">
          <mxGeometry x="200" y="500" width="800" height="120" as="geometry" />
        </mxCell>

      </root>
    </mxGraphModel>
  </diagram>
</mxfile>
